<svg xmlns="http://www.w3.org/2000/svg">
	<symbol id="example_icon" width="100%" height="100%" x="0" y="0" fill="none" stroke="none">
			<g class="currentLayer" style=""><title>Layer 1</title><path d="m30.729 57.915c5.941 7.138 11.883 14.276 17.824 21.414 0.438 0.524 0.951 0.715 1.447 0.681 0.496 0.034 1.011-0.156 1.447-0.681 5.941-7.138 11.883-14.276 17.824-21.414 1.1-1.319 0.461-3.494-1.446-3.494h-7.479v-32.386c0-1.116-0.931-2.047-2.047-2.047h-16.598c-1.116 0-2.047 0.931-2.047 2.047v32.386h-7.479c-1.907 0-2.546 2.175-1.446 3.494z" id="svg_1" class="" fill="#d65032" fill-opacity="1"/><path d="m50 100c27.614 0 50-22.386 50-50s-22.386-50-50-50-50 22.386-50 50 22.386 50 50 50zm0-92c23.196 0 42 18.804 42 42 0 23.195-18.804 42-42 42-23.195 0-42-18.805-42-42 0-23.196 18.805-42 42-42z" id="svg_2" class="selected" fill="#d65032" fill-opacity="1"/></g>
	</symbol>
</svg>